<?xml version="1.0" standalone="no"?>
<!DOCTYPE svg PUBLIC "-//W3C//DTD SVG 1.1//EN" "http://www.w3.org/Graphics/SVG/1.1/DTD/svg11.dtd" >
<svg xmlns="http://www.w3.org/2000/svg" xmlns:xlink="http://www.w3.org/1999/xlink" version="1.1">
<metadata>
Created by FontForge 20190801 at Sat Apr  4 00:34:33 2020
 By www-data
Copyright (c) 2020 by Inspiratype. All rights reserved.
</metadata>
<defs>
<font id="OurStoryBeginsFREE" horiz-adv-x="219" >
  <font-face 
    font-family="OurStoryBeginsFREE"
    font-weight="400"
    font-stretch="normal"
    units-per-em="1000"
    panose-1="2 0 5 6 0 0 0 2 0 3"
    ascent="800"
    descent="-200"
    x-height="279"
    cap-height="577"
    bbox="-60 -405.174 657.25 731"
    underline-thickness="50"
    underline-position="-100"
    unicode-range="U+000D-007A"
  />
<missing-glyph 
 />
    <glyph glyph-name=".notdef" 
 />
    <glyph glyph-name=".null" horiz-adv-x="0" 
 />
    <glyph glyph-name="nonmarkingreturn" unicode="&#xd;" 
 />
    <glyph glyph-name="NULL" horiz-adv-x="0" 
 />
    <glyph glyph-name="NULL" horiz-adv-x="0" 
 />
    <glyph glyph-name="space" unicode=" " 
 />
    <glyph glyph-name="A" unicode="A" horiz-adv-x="466" 
d="M444 -63q-33 8 -53.5 23t-32 35.5t-15.5 44.5t-4 50q-39 -14 -73 -26.5t-69 -22.5q-19 -5 -29 -15.5t-13 -30.5q-4 -25 -8 -49t-9 -49q-3 -17 -6.5 -33t-7.5 -33q-90 14 -83 94q6 57 14 113.5t17 113.5q16 104 33 206.5t34 205.5q4 20 8.5 38.5t9.5 36.5q43 3 74.5 -1.5
t54.5 -19t38.5 -40t26.5 -64.5q14 -49 22 -99t17 -101q14 -72 27.5 -144t25.5 -144q4 -20 2.5 -42t-1.5 -47zM186 126q39 16 69.5 28.5t62.5 25.5q-5 26 -8.5 49t-7.5 46q-5 22 -8.5 43t-8.5 42q-5 20 -11 40.5t-11 40.5q-3 0 -6.5 -0.5t-7.5 -0.5q-15 -75 -30.5 -151.5
t-32.5 -162.5z" />
    <glyph glyph-name="B" unicode="B" horiz-adv-x="470" 
d="M254 255q32 -12 59 -22t53 -21q101 -46 63 -147q-32 -81 -91 -135.5t-136 -90.5q-39 -19 -76.5 -4t-76.5 58q3 11 7.5 21t4.5 20q-4 81 -8 161.5t-8 161.5q-4 67 -7 133.5t-6 133.5q-1 15 -1.5 30.5t2.5 30.5q2 10 7.5 20.5t13.5 14.5q29 13 59.5 20.5t60.5 -3.5
q42 -14 78 -37.5t64 -58.5q21 -26 24.5 -56t-1.5 -62q-8 -48 -30.5 -88.5t-54.5 -79.5zM144 -67q40 13 74.5 40t59.5 62.5t38 75t9 76.5q-35 1 -70 1.5t-70 0.5q-17 -1 -29 -9.5t-12 -28.5v-218zM141 569q2 -66 2.5 -127.5t10.5 -127.5q59 43 81.5 95.5t23.5 114.5
q0 26 -14.5 39.5t-40.5 14.5q-14 0 -28.5 -3t-34.5 -6z" />
    <glyph glyph-name="C" unicode="C" horiz-adv-x="429" 
d="M384 531q-14 -2 -28.5 -7t-27.5 -2q-24 6 -40.5 -1.5t-28.5 -25.5q-18 -27 -38 -54t-29 -57q-26 -87 -41.5 -174.5t-2.5 -179.5q2 -15 5 -29.5t9 -27t17 -21.5t30 -12q67 -12 111 60q7 11 14 21.5l17 25.5q14 -11 28 -20t18 -21q8 -20 11 -41.5t-1 -41.5
q-2 -11 -18 -20.5t-30 -14.5q-61 -23 -110 -20.5t-86.5 25t-64.5 62.5t-44 93q-9 29 -11.5 60.5t-0.5 62.5q5 89 21 174.5t54 168.5q15 34 41.5 54t57.5 29t62 7t55 -12q16 -6 29.5 -18t27.5 -22z" />
    <glyph glyph-name="D" unicode="D" horiz-adv-x="478" 
d="M44 604q30 14 57 18t53 0.5t51 -12t51 -19.5q68 -28 111 -76.5t72 -111.5q16 -35 18 -74t-12 -77q-26 -64 -54 -126.5t-55 -125.5q-29 -71 -103 -103q-17 -8 -34 -18t-34 -18q-23 -10 -44 -8.5t-40 18.5q-17 15 -23.5 31t3.5 41q6 16 -0.5 36t-6.5 39q-4 130 -7.5 257.5
t-5.5 256.5q-1 18 0.5 36t2.5 36zM160 -11q3 -2 6.5 -3.5t7.5 -3.5q16 19 33.5 37t28.5 39q35 66 62 135t39 144q7 41 2.5 80t-26.5 75q-6 10 -14.5 19.5t-18.5 13.5q-28 9 -57 16t-63 15v-567z" />
    <glyph glyph-name="E" unicode="E" horiz-adv-x="447" 
d="M167 -50q33 2 65 12.5t63.5 18t64 5.5t67.5 -24q-49 -32 -97 -49.5t-96 -34.5q-54 -18 -99.5 -8t-80.5 55q-12 83 -13 165.5t2.5 166t8.5 167.5t4 169q48 3 98 7.5t101 4.5q36 1 62 -15.5t49 -47.5q-47 -5 -92 -9t-92 -8q-3 -62 -6 -119t-6 -116q16 -6 33.5 -5.5
t34.5 -0.5t32 -7t27 -25q-14 -20 -36.5 -24.5t-43.5 -10.5t-32.5 -11.5t-17.5 -13t-7.5 -20.5t-0.5 -34q1 -46 3.5 -92.5t4.5 -95.5z" />
    <glyph glyph-name="F" unicode="F" horiz-adv-x="379" 
d="M357 257q-48 -10 -96.5 -19.5t-101.5 -20.5q-2 -81 -4.5 -162t-5.5 -169q-15 5 -28.5 8t-21.5 11q-7 7 -15.5 13.5t-16 14t-12 17t-4.5 23.5q2 47 0.5 93.5t-4.5 93.5q-5 91 -11.5 180t-13.5 180q-3 31 3.5 41t35.5 13q42 4 84 6.5t84 5.5q21 1 39.5 -5.5t33.5 -27.5
q-16 -15 -34.5 -22t-37.5 -10t-38.5 -5t-36.5 -9v-195q27 -5 53.5 -4.5t53 -0.5t51 -6t46.5 -21q-1 -6 -1 -11.5t-1 -11.5z" />
    <glyph glyph-name="G" unicode="G" horiz-adv-x="517" 
d="M346 201q-26 3 -46.5 4.5t-38.5 7.5q-19 7 -21 22t15 26q28 20 57 37.5t61 29.5q18 7 37.5 2t35 -17.5t24.5 -30t6 -36.5q-7 -41 -9 -82t-1.5 -82t2.5 -82l4 -82q0 -5 -2.5 -9t-4.5 -12q-16 6 -29.5 3.5t-25.5 -8.5t-24 -13.5t-25 -11.5q-82 -26 -149 -6t-121 98
q-51 76 -50 169q1 110 25 212.5t67 202.5q13 29 33 49.5t52 25.5q21 4 40 0.5t31 -23.5q12 -18 7.5 -35.5t-15.5 -34.5q-72 -112 -102 -234.5t-29 -254.5q0 -16 3 -31q13 -55 36.5 -72.5t70.5 -9.5q53 9 81.5 41t23.5 80q-4 40 -9 79.5t-10 77.5z" />
    <glyph glyph-name="H" unicode="H" horiz-adv-x="449" 
d="M393 -152q-45 5 -65 25t-24 63q-4 51 -8.5 101.5t-9.5 104.5h-133q-5 -27 -4 -55t1.5 -55.5t-1.5 -54.5t-13 -54q-29 10 -46 18.5t-26 20t-11.5 28.5t-3.5 45q-4 100 -8 198.5t-9 198.5q-1 20 -1.5 40.5t2.5 40.5q2 17 11 32.5t29 14.5q15 -1 30.5 -10t24.5 -20
q8 -11 10.5 -27.5t3.5 -31.5q2 -60 2.5 -118.5t2.5 -117.5q0 -6 1 -13t3 -19q15 -1 30 -2.5t30 0.5q24 1 39 5.5t23 14t10.5 25.5t2.5 40q1 146 9 292q0 12 7.5 26t17.5 18q9 5 23.5 0t25.5 -13q16 -11 25 -26t12 -31.5t2.5 -33.5t-1.5 -33q-26 -299 -6 -597v-15t-1 -15
q-1 -3 -3 -5.5t-4 -4.5z" />
    <glyph glyph-name="I" unicode="I" horiz-adv-x="199" 
d="M158 -108q-45 -1 -72 19.5t-29 59.5q-3 48 -3 96t-2 97q-2 76 -5 151.5t-6 152.5q0 15 -1 31t3 31q4 14 11.5 28.5t18.5 18.5q17 7 35 -0.5t27 -27.5q8 -15 15 -31t7 -33q2 -148 1.5 -295t-0.5 -298z" />
    <glyph glyph-name="J" unicode="J" horiz-adv-x="371" 
d="M61 -30q24 -3 40.5 -2.5t28.5 6t20.5 18t17.5 33.5q16 40 29 82t16 84q6 72 5 143t-1 143q0 6 -2.5 12.5t-4.5 14.5q-26 -3 -53 -7.5t-52.5 -2t-47 17t-37.5 49.5q8 4 16.5 8t16.5 5q38 5 77 10t77 7q18 2 36 -3.5t36 -9.5q19 -5 25 -17t10 -29q19 -107 16.5 -213
t-13.5 -214q-5 -45 -19.5 -85.5t-36.5 -78.5q-8 -13 -18.5 -24.5t-23.5 -19.5q-48 -29 -90 -9.5t-68 82.5z" />
    <glyph glyph-name="K" unicode="K" horiz-adv-x="400" 
d="M165 191q38 86 74.5 166.5t74.5 165.5q19 -17 36 -30.5t28 -30.5q6 -9 5 -25t-6 -27q-22 -51 -44 -100t-48 -97q-20 -35 -16 -62t27 -55q18 -22 35 -43.5t34 -44.5q20 -26 37.5 -53t37.5 -56q-20 -8 -35.5 -7.5t-28 6.5t-22.5 16.5t-19 22.5q-26 37 -54 72t-66 63
q-18 -20 -36.5 -39t-30.5 -41q-8 -15 -7.5 -34.5t-1.5 -38.5q-1 -10 -1 -20t-1.5 -19.5t-6.5 -17.5t-17 -14q-22 6 -36 13t-22 16.5t-11 23.5t-3 35q-1 153 -1 305v305q0 20 2 39t4 39q57 2 81.5 -23t23.5 -76q-2 -78 -1.5 -155.5t0.5 -155.5q0 -2 3.5 -6t11.5 -17z" />
    <glyph glyph-name="L" unicode="L" horiz-adv-x="417" 
d="M134 0q36 10 72 19.5t71 17.5q15 4 30.5 7t30.5 1q12 -1 24.5 -5.5t20.5 -12.5q7 -6 8.5 -17t5.5 -23q-42 -14 -82.5 -26.5t-79.5 -26.5q-25 -9 -49 -19.5t-48 -21.5q-26 -11 -41 -7.5t-29 29.5q-9 17 -16.5 34.5t-7.5 34.5q-2 138 -2.5 274t-0.5 273q0 8 -0.5 17t1 17
t7 14t17.5 8q10 1 21 -3t20.5 -11.5t16.5 -18t9 -21.5t1.5 -21.5t-1.5 -21.5q-2 -117 -3 -233t-3 -233q0 -5 2.5 -10t4.5 -14z" />
    <glyph glyph-name="M" unicode="M" horiz-adv-x="563" 
d="M420 389q-26 -46 -50 -87t-47 -82q-36 4 -58.5 22t-40 41.5t-33.5 50t-39 47.5q-3 -27 -5.5 -49t-3.5 -42q-5 -78 -8 -155.5t-8 -155.5q-1 -11 -4.5 -22.5t-5.5 -23.5q-24 6 -39 13t-23.5 17.5t-11 25t-2.5 35.5q3 112 6.5 223.5t6.5 223.5v91q101 12 136 -83
q14 -33 27.5 -66t28.5 -65q4 -9 13 -16.5t21 -20.5q23 45 42.5 86t40.5 79q15 27 32.5 52.5t35.5 50.5q11 15 31.5 14t31.5 -20q23 -40 26 -87q3 -48 2.5 -96t-1.5 -96q-2 -101 -4.5 -201.5t-4.5 -202.5q0 -2 -3 -4.5t-6 -6.5q-36 5 -49.5 28.5t-16.5 53.5q-2 31 -1 62t0 62
q-2 71 -3 140.5t-3 139.5q0 4 -2.5 8.5t-7.5 15.5z" />
    <glyph glyph-name="N" unicode="N" horiz-adv-x="519" 
d="M376 120v521q51 -2 77 -28t25 -77q-3 -155 -6.5 -307.5t-6.5 -307.5v-7q-2 -8 -2.5 -16.5t-2 -16.5t-6.5 -14.5t-15 -10.5q-15 -6 -32 6.5t-30 34.5q-41 70 -70 145.5t-60 149.5q-20 50 -45 98t-53 97q-10 -35 -12.5 -69.5t-2 -69t2 -69.5t-0.5 -69q-3 -70 -7.5 -139.5
t-9.5 -139.5q-43 10 -62.5 30.5t-21.5 58.5q-1 16 -1 31.5v31.5v498q0 14 -1.5 27t-2.5 27q26 12 55.5 11.5t56 -12t47.5 -32t32 -48.5q29 -75 57.5 -148t57.5 -148q5 -11 11 -21l12 -20q5 1 8.5 1.5t8.5 1.5z" />
    <glyph glyph-name="O" unicode="O" horiz-adv-x="478" 
d="M239 607q69 -22 117 -69t68 -119q10 -37 12 -76t1 -77q-1 -74 -14 -145t-48 -138q-26 -50 -67 -76.5t-92 -40.5q-10 -2 -21.5 0t-19.5 7q-21 15 -43.5 31t-33.5 38q-17 30 -29.5 61.5t-20 64t-8 66.5t7.5 70q14 66 28 130.5t31 129.5q6 26 16 49.5t25.5 42t37.5 32
t53 19.5zM148 -64q40 9 67 22t44 41q124 207 79 442q-5 30 -21 55.5t-48 38.5q-39 -49 -61.5 -103t-38.5 -111q-9 -35 -19 -70.5t-17 -71t-10 -72t1 -73.5q2 -23 9.5 -47t14.5 -51z" />
    <glyph glyph-name="P" unicode="P" horiz-adv-x="329" 
d="M111 -119q-31 3 -47.5 15t-17.5 38q-2 162 -3 323t-3 323q0 2 1.5 4t4.5 7q60 -12 114 -36.5t100 -69.5q23 -23 36 -51t12 -60q-3 -87 -56 -155q-11 -13 -21.5 -26.5t-23 -24.5t-29.5 -17.5t-39 -5.5q-7 -66 -13.5 -130.5t-14.5 -133.5zM145 256q45 32 59 74.5t13 90.5
q0 32 -14 47.5t-48 24.5q-12 -29 -14.5 -58.5t-1 -59.5t4 -59.5t1.5 -59.5z" />
    <glyph glyph-name="Q" unicode="Q" horiz-adv-x="460" 
d="M278 -22q-36 5 -65.5 8t-58.5 8q-23 4 -39 17.5t-28 33.5q-11 18 -24 35.5t-23 36t-16 39.5t-3 45q4 32 5 65t10 64q18 60 40.5 117t42.5 116q7 19 18.5 31t25.5 20.5t30 14t32 10.5q10 3 22 2t22 -6t17.5 -13t10.5 -18q5 -19 15.5 -29.5t23.5 -21.5q36 -30 58.5 -65
t33.5 -73.5t11.5 -80.5t-5.5 -85q-12 -91 -60 -167q-14 -21 -14.5 -41t4.5 -42q11 -41 20 -82.5t19 -86.5q-35 -2 -55.5 13.5t-32.5 42.5q-11 24 -20 48t-17 44zM268 547q-16 -10 -25.5 -16.5t-16 -13t-11.5 -15t-11 -23.5q-17 -42 -34 -83.5t-30 -84.5q-14 -46 -21 -93.5
t4 -96.5q7 -32 14.5 -49t19 -22t28.5 2t44 25q3 2 4.5 4.5t4.5 6.5q0 17 -5 33.5t-9.5 34t-5.5 36t8 39.5q26 -11 51 -20.5t49 -19.5q50 114 35 207t-93 149z" />
    <glyph glyph-name="R" unicode="R" horiz-adv-x="398" 
d="M226 140q53 -57 103.5 -113t108.5 -119q-22 -1 -35 -3t-21 3q-17 9 -31 20.5t-27 25.5q-31 31 -60.5 63t-59.5 64q-11 12 -25 23.5t-34 28.5q-6 -61 -11.5 -115t-11.5 -107q-26 3 -40.5 6t-22 9.5t-10.5 18t-6 31.5q-4 34 -5.5 68t-1.5 68q-2 99 -3 196t-3 196
q0 19 7 31.5t27 20.5q25 10 56 11t63.5 -6t63.5 -22.5t56.5 -38.5t42 -53.5t20.5 -68.5q3 -32 -3 -58.5t-19 -50t-31 -45t-38 -41.5q-10 -11 -21.5 -20t-27.5 -23zM147 220q54 35 81 77.5t30 99.5q2 26 -1 52t-26 44q-11 9 -26 14.5t-28 4.5q-17 -2 -19.5 -16t-3.5 -29
q-1 -25 -3.5 -49t-3.5 -49q-1 -35 -0.5 -71t0.5 -78z" />
    <glyph glyph-name="S" unicode="S" horiz-adv-x="380" 
d="M40 5q72 -11 123 19.5t62 86.5q6 27 -0.5 48t-34.5 35q-85 43 -120 136q-20 51 -9.5 96t39.5 85q14 19 31.5 30t37.5 15t41.5 3.5t42.5 -3.5q10 -2 18.5 -11.5t17.5 -17.5q-8 -9 -14.5 -19t-15.5 -16q-17 -10 -33 -20.5t-29.5 -23.5t-24 -29t-16.5 -37q-7 -25 -8.5 -43
t3 -33t16.5 -28.5t33 -28.5l42 -32t41 -33q33 -28 46.5 -64t8.5 -71.5t-29 -65t-65 -44.5l-12 -4t-11 -4q-29 -12 -47.5 -16.5t-34 -1t-30 15.5t-35.5 34q-7 8 -14.5 17.5t-19.5 24.5z" />
    <glyph glyph-name="T" unicode="T" horiz-adv-x="332" 
d="M412 521q-19 -2 -35 -4.5t-32 -4.5q-17 -2 -34.5 -5.5t-37.5 -6.5q-2 -78 -3 -153.5t-9 -150.5q-4 -38 -4 -75.5t-1 -75.5t-5.5 -75.5t-17.5 -74.5q-27 9 -43 17.5t-24.5 20t-10.5 27.5t-2 41q2 108 3 214.5t3 214.5q0 9 -1 18.5t-2 21.5q-29 -3 -56 -3.5t-53 5
t-50.5 18.5t-46.5 36q10 4 17 7t14 4q57 9 113.5 17.5t113.5 15.5q68 8 136 6q15 -1 23.5 -3t15 -7.5t13 -16t16.5 -28.5z" />
    <glyph glyph-name="U" unicode="U" horiz-adv-x="428" 
d="M161 -38q21 20 36 32t23 26q18 29 34.5 58.5t28.5 61.5q33 91 47 187t27 198q17 -5 32.5 -8.5t31.5 -7.5q12 -47 3.5 -89t-17.5 -82q-17 -78 -37.5 -154t-43.5 -152q-6 -22 -17.5 -42.5t-25.5 -39.5q-58 -81 -139 -21q-48 35 -77 80t-37 105q-13 99 -9 196t17 194
q1 10 2.5 19.5t5.5 17.5q6 12 17 18.5t23 8t23.5 -3.5t18.5 -16q10 -17 15.5 -36.5t7.5 -38.5q2 -22 -1.5 -43.5t-6.5 -43.5q-14 -88 -16 -176t11 -177q2 -14 8.5 -29.5t14.5 -41.5z" />
    <glyph glyph-name="V" unicode="V" horiz-adv-x="381" 
d="M178 98q15 41 30.5 80.5t29.5 81.5q20 57 38 114.5t36 115.5q9 29 21 40.5t31 7.5q10 -2 20 -9t18 -17t13 -21t5 -21q-1 -13 -8 -30q-29 -81 -57 -161t-57 -161q-10 -28 -21 -55.5t-25 -53.5q-8 -17 -18 -32.5t-23 -28.5q-23 -23 -49.5 -16t-38.5 37q-43 109 -73.5 221
t-46.5 229q-2 17 -6 33.5t-6 33.5q-2 16 2 30t23 20t36.5 4t30.5 -20q6 -11 11 -22.5t7 -23.5q11 -69 20.5 -138t20.5 -138q4 -26 10.5 -50t11.5 -49q4 0 7.5 -0.5t6.5 -0.5z" />
    <glyph glyph-name="W" unicode="W" horiz-adv-x="638" 
d="M15 510q57 10 81.5 -9.5t26.5 -71.5q4 -75 7.5 -149.5t8.5 -149.5q1 -13 6 -26t16 -27q23 66 45 131.5t45 131.5q5 17 9 33t11 32q6 16 18 25.5t25 11t25.5 -5.5t21.5 -22q11 -17 15 -39t6 -43q2 -60 2.5 -118.5t2.5 -118.5q1 -15 4 -31.5t7 -43.5q50 66 76.5 131.5
t49.5 130.5q23 66 36 133.5t29 135.5q24 -5 38.5 -10t21.5 -13.5t8 -22t-2 -34.5q-14 -92 -43 -178t-60 -173q-10 -28 -21 -55.5t-23 -54.5q-11 -24 -27.5 -40.5t-47.5 -11.5q-11 2 -18 -1q-8 -3 -15.5 -7t-15 -6.5t-15.5 -1.5t-17 9q-19 17 -33.5 36.5t-17.5 46.5
q-4 32 -9 65t-11 75q-9 -17 -14.5 -25.5t-8.5 -16.5q-16 -41 -31.5 -81t-30.5 -81q-9 -23 -26 -34.5t-40 -15.5q-35 21 -52 52t-21 71q-11 106 -23 210.5t-23 210.5q-1 11 0.5 23t3.5 23z" />
    <glyph glyph-name="X" unicode="X" horiz-adv-x="377" 
d="M174 384q11 28 18.5 52t18.5 45q10 19 23 36t29 31q8 7 23.5 7.5t26.5 -4.5q15 -6 21.5 -20.5t0.5 -31.5q-5 -13 -11 -25.5t-11 -25.5q-18 -44 -35.5 -86.5t-35.5 -86.5q-14 -35 6 -71q23 -41 45.5 -81.5t45.5 -81.5q2 -4 8 -10q13 -23 9 -48t-22 -34q-18 -10 -41 1.5
t-34 34.5q-14 31 -30 61.5t-35 65.5q-27 -32 -37 -64t-20 -62q-3 -8 -4 -17.5t-5 -18.5q-3 -8 -11.5 -15.5t-18.5 -12t-20 -6t-17 2.5q-17 8 -19.5 23.5t2.5 30.5q17 54 33 107t35 106q9 25 10 47t-14 47q-29 48 -54 97.5t-52 98.5q-9 17 -11 32t16 29q18 13 36 10.5
t31 -18.5q19 -23 35 -47.5t33 -48.5l14 -22t18 -27z" />
    <glyph glyph-name="Y" unicode="Y" horiz-adv-x="329" 
d="M162 -176q-24 10 -39.5 18t-23.5 18t-9.5 23.5t2.5 33.5q14 78 30.5 155t37.5 153q11 36 6 61t-32 53q-35 35 -63 76t-57 83q-20 29 -37.5 60t-36.5 62q21 40 62 22q29 -14 51.5 -32t36.5 -50q20 -45 46 -89t55 -97q9 22 14 34t8 23q10 36 18 72.5t19 72.5q10 32 27 41
t47 -2q25 -9 39.5 -17t20.5 -19.5t3 -28t-13 -41.5q-24 -56 -43 -113.5t-36.5 -115.5t-34.5 -116t-38 -115q-14 -36 -20.5 -74t-16.5 -76q-5 -20 -11 -38t-12 -37z" />
    <glyph glyph-name="Z" unicode="Z" horiz-adv-x="483" 
d="M472 -47q-17 -7 -32 -14.5t-31 -12.5q-38 -11 -75.5 -13.5t-75.5 -1.5t-76 3.5t-76 3.5q-10 1 -20 10t-18 18q-9 11 -14.5 24t-13.5 28q42 60 87.5 117t90.5 116.5t85.5 122.5t72.5 135q-38 5 -71.5 2t-66.5 -11q-25 -5 -43.5 -5t-33.5 7t-29 22t-30 39q8 2 15 4t14 3
q47 2 93 5t93 5q8 0 15.5 0.5t15.5 0.5q97 -6 124.5 -51.5t-18.5 -126.5q-35 -62 -79 -118.5t-86 -113.5q-28 -37 -56.5 -73t-56.5 -73q6 -10 13 -14t14.5 -5t15.5 0t15 1q45 1 90 2.5t90 3.5q18 1 34 -4.5t24 -35.5z" />
    <glyph glyph-name="a" unicode="a" horiz-adv-x="403" 
d="M272 92q-12 -21 -22 -39t-21 -35q-17 -26 -38.5 -39t-44.5 -13.5t-45.5 12t-40.5 38.5q-23 33 -32.5 71.5t-6.5 78t18.5 77t42.5 66.5q40 43 95 24q12 -4 23 -8t22 -7t23 -3t26 5q9 3 21 -2.5t24 -15t20.5 -22t9.5 -24.5q7 -54 10 -108t7 -108q0 -2 -2 -4.5t-4 -4.5
q-15 4 -23.5 7t-16.5 9t-18 16t-27 29zM245 255q-19 9 -32 7.5t-22 -8.5t-16 -16.5t-13 -16.5q-30 -32 -40 -71.5t-9 -83.5q48 38 81.5 83.5t50.5 105.5z" />
    <glyph glyph-name="b" unicode="b" horiz-adv-x="370" 
d="M28 731q28 -2 47 -7t29.5 -15t15 -27t4.5 -42q1 -111 0.5 -220.5t-0.5 -221.5q20 0 43.5 1t47.5 -1q28 -2 54.5 -10t43.5 -33q13 -19 15.5 -42t-4.5 -45t-22.5 -40t-37.5 -27q-17 -7 -31 -10.5t-30.5 -2.5t-37.5 6t-51 14v-154q-46 8 -64.5 28.5t-22.5 60.5
q-6 57 -6 114.5t1.5 115t3.5 115t2 114.5q-1 75 -1.5 149t-0.5 149q0 8 0.5 15.5t1.5 15.5zM129 78q48 0 68.5 13t24.5 47q-32 -2 -54 -18t-39 -42z" />
    <glyph glyph-name="c" unicode="c" horiz-adv-x="330" 
d="M292 361q-11 -10 -20.5 -19t-19.5 -15q-30 -19 -51 -43.5t-36 -52.5t-25.5 -59t-19.5 -62q-9 -28 3 -42t41 -12q32 2 64.5 9t68.5 13q3 -11 9 -23t2 -19q-8 -16 -20 -31t-27 -24q-32 -20 -66.5 -16t-63.5 24q-44 30 -71 72.5t-38 94.5q-4 17 1 31q18 42 34.5 86t41.5 82
q36 56 88 57t105 -51z" />
    <glyph glyph-name="d" unicode="d" horiz-adv-x="380" 
d="M220 235q6 31 12.5 59.5t8.5 57.5q2 57 1 114.5t0 114.5q0 8 -2 17.5t-1 18.5t6 16t19 10q21 4 42.5 -10t26.5 -39q8 -36 13 -73t3 -74q-4 -100 -11 -198.5t-12 -198.5q-2 -34 -1 -68t1 -71q-14 -2 -24.5 1.5t-19.5 10.5t-15.5 16t-10.5 18q-11 19 -11.5 43t-4.5 50
q-6 -5 -10 -8t-6 -7q-38 -51 -84 -49.5t-88 51.5q-20 23 -28 47.5t0 53.5q22 89 122 92l34 2t40 3zM189 175q-18 0 -33.5 -10t-27 -26.5t-17 -38.5t-3.5 -46q20 10 33.5 23t22 29t14.5 33.5t11 35.5z" />
    <glyph glyph-name="e" unicode="e" horiz-adv-x="312" 
d="M290 75q2 -23 0.5 -38t-7.5 -25t-17 -16.5t-29 -11.5q-28 -8 -59 -2t-59 22t-51 41t-35 55q-17 43 -11 82.5t27 71.5t52.5 54t65.5 30q32 7 63.5 -15t47.5 -59q22 -54 -33 -96q-32 -26 -69 -37.5t-79 -6.5q4 -23 10.5 -35t26 -17t56 -3.5t100.5 6.5z" />
    <glyph glyph-name="f" unicode="f" horiz-adv-x="326" 
d="M205 160h71q1 -19 -6 -29t-18.5 -16t-25 -11.5t-25.5 -15.5q-2 -99 -5 -200t-6 -203q-45 -7 -67.5 11t-24.5 64q-2 61 -1.5 121.5t0.5 121.5v73q-23 15 -44.5 29t-42.5 28q1 4 1 7.5t1 7.5l91 13q1 31 2.5 60t2.5 58q0 72 26 134t64 121q11 17 30 27.5t41 14.5t44.5 1
t40.5 -14q14 -9 26.5 -20t25.5 -22q-13 -16 -21 -24t-15.5 -9t-17.5 5t-26 18q-67 -74 -96.5 -160t-24.5 -191z" />
    <glyph glyph-name="g" unicode="g" horiz-adv-x="346" 
d="M-10 -225q52 -29 84.5 -20.5t58.5 56.5q19 35 31 71.5t18.5 74.5t9 77.5t3.5 81.5q-11 -6 -17.5 -9.5t-11.5 -6.5q-44 -25 -78.5 -12t-51.5 62q-13 35 -10 70t17 69q14 31 41 43t55 16q19 2 39.5 -9t40.5 -18q23 -7 33.5 -22.5t18.5 -38.5q35 -101 34.5 -201.5
t-19.5 -203.5q-10 -49 -33 -91.5t-70 -70.5q-60 -35 -113.5 -14t-79.5 96zM158 284q-4 1 -7.5 2t-8.5 2q-5 -18 -9.5 -36t-9.5 -36q3 -1 6.5 -1.5t6.5 -1.5q5 17 11 35t11 36z" />
    <glyph glyph-name="h" unicode="h" horiz-adv-x="390" 
d="M143 171q26 29 46 51t39 42q34 -6 55 -13.5t33 -20.5t17.5 -33.5t8.5 -52.5q5 -70 7.5 -139.5t-10.5 -138.5q-36 -9 -51 0t-19 46q-5 42 -7.5 83.5t-5.5 83.5q-2 23 -3 47.5t-3 58.5q-35 -35 -57 -69.5t-36 -70.5q-14 -38 -23 -77t-21 -84q-21 -8 -31.5 1.5t-18.5 23.5
t-16.5 27.5t-24.5 13.5q-2 26 -1.5 70.5t1.5 100t3.5 118.5t5.5 125.5t7 121.5t7.5 106t7.5 79t7 41q6 1 13 2t15 1q19 0 31.5 -1.5t20 -7.5t11.5 -17.5t7 -30.5q4 -21 6 -43t0 -43q-4 -63 -10 -124t-11 -123q-2 -35 -1 -72t1 -82z" />
    <glyph glyph-name="i" unicode="i" horiz-adv-x="196" 
d="M129 -165q-42 3 -72 31t-30 70q1 70 4 139.5t7 139.5q1 17 8.5 34t27.5 16q17 -1 34.5 -9t28.5 -21q10 -13 14.5 -32.5t3.5 -36.5q-3 -79 -8.5 -157.5t-10.5 -157.5q0 -5 -2.5 -8.5t-4.5 -7.5zM116 392q-14 -5 -24.5 -4.5t-18.5 4.5t-14.5 11t-12.5 14t-9.5 16t-9.5 16
q-33 36 -1 72q5 7 16 12.5t19 3.5q22 -5 41 -15.5t21 -36.5q2 -24 -1.5 -47.5t-5.5 -45.5z" />
    <glyph glyph-name="j" unicode="j" horiz-adv-x="202" 
d="M-60 -332q6 10 12.5 17.5t8.5 15.5q27 97 48 193t19 197q-1 26 -0.5 52.5t3.5 52.5q4 33 23 41.5t47 -9.5q23 -15 37 -36.5t15 -50.5q4 -134 -14.5 -262.5t-71.5 -253.5q-8 -20 -21.5 -26.5t-31.5 -1.5q-27 8 -47 23.5t-27 47.5zM155 392q-14 -5 -25 -4.5t-19 4.5
t-14.5 11t-12.5 14t-9 16t-9 16q-17 18 -16.5 36.5t14.5 35.5q6 7 17 12.5t19 3.5q21 -5 40 -15.5t21 -36.5q2 -24 -1 -47.5t-5 -45.5z" />
    <glyph glyph-name="k" unicode="k" horiz-adv-x="378" 
d="M358 -7q-39 -35 -103 -30.5t-133 47.5v-267q-27 3 -45 8.5t-29.5 15t-17 24.5t-5.5 37q-3 131 -4.5 261t0.5 262q1 82 6.5 164t10.5 165q55 14 85.5 -7t30.5 -78q0 -36 -3 -71.5t-6 -71.5q-5 -57 -10 -115t-10 -122q17 8 29.5 11.5t20.5 11.5q30 30 58 25.5t57 -27.5
q4 -3 7.5 -7t9.5 -11q-9 -24 -26.5 -42.5t-36 -37t-34.5 -39t-23 -47.5q23 -14 48 -15t49 2q28 4 45.5 -7.5t28.5 -38.5z" />
    <glyph glyph-name="l" unicode="l" horiz-adv-x="228" 
d="M162 -159q-49 8 -84 38t-39 70q-5 48 -8 96.5t1 96.5q11 123 24.5 244.5t27.5 243.5q5 40 25.5 50t55.5 -10q30 -17 43.5 -40.5t7.5 -61.5q-16 -93 -30 -184t-24 -185q-8 -72 -13.5 -144.5t8.5 -146.5q3 -16 3 -33t2 -34z" />
    <glyph glyph-name="m" unicode="m" horiz-adv-x="506" 
d="M151 183q20 25 35 44t30 36q25 28 50 26.5t46 -33.5q8 -11 13.5 -23t11.5 -22q20 -4 38.5 -6t35.5 -7q29 -10 46 -29.5t21 -51.5q5 -36 7.5 -70.5t-6.5 -69.5q-25 1 -41 4t-25.5 11t-14 21.5t-7.5 34.5q-3 23 -5.5 45t-4.5 45q-4 0 -8 0.5t-8 0.5q-9 -26 -17.5 -52.5
t-17.5 -53.5q-25 10 -40 18t-22.5 18.5t-10 26t-3.5 39.5q-1 16 -1 31t-2 31q0 2 -2.5 5t-6.5 8q-14 -17 -24 -35t-18.5 -36.5t-16.5 -37.5t-18 -37q-20 -38 -27.5 -78.5t-3.5 -82.5q-40 -8 -66 9.5t-31 55.5q-5 32 -6 65t-1 66q0 64 1.5 127.5t0.5 127.5q0 23 8 39t28 26
q25 -8 40.5 -15t24.5 -17t12.5 -25t5.5 -40q2 -32 1 -65t-1 -74z" />
    <glyph glyph-name="n" unicode="n" horiz-adv-x="362" 
d="M320 -84q-21 4 -32.5 24.5t-20 52.5t-18.5 73.5t-29 88.5q-42 -60 -62 -123.5t-31 -130.5q-94 24 -97 106q-3 77 -5 152.5t-4 152.5q-1 21 5.5 39t29.5 25q8 3 19 -0.5t21.5 -11t18.5 -17.5t11 -20q5 -17 6.5 -33.5t2.5 -33.5q2 -23 1.5 -47t-0.5 -56q14 14 20.5 21.5
t13.5 14.5q19 19 41 25.5t43.5 2t39.5 -19.5t29 -40q5 -12 7 -42t1 -66t-4 -73t-7 -64z" />
    <glyph glyph-name="o" unicode="o" horiz-adv-x="387" 
d="M347 107q0 -30 -10 -59.5t-27 -55t-41 -45.5t-51 -30q-36 -14 -67 -4.5t-58 34.5q-29 27 -44.5 65.5t-17 80t11.5 80.5t41 67q26 25 59.5 37t71.5 8q8 -1 16 -5.5t16 -9.5q8 -6 13.5 -14t13.5 -11q24 -10 37.5 -25t21 -33.5t10 -38.5t4.5 -41zM126 -4q40 4 69.5 22.5
t45.5 45t17 59t-16 65.5q-10 19 -25 22t-29 -13q-15 -17 -29.5 -35.5t-25.5 -38.5q-16 -29 -20.5 -60.5t13.5 -66.5z" />
    <glyph glyph-name="p" unicode="p" horiz-adv-x="367" 
d="M36 328q62 2 90.5 -24t36.5 -91q20 7 39.5 12t37.5 3.5t34.5 -12t30.5 -35.5q24 -42 21 -80.5t-29 -76.5q-30 -44 -69.5 -47t-85.5 21q-8 -38 -10 -76t-1.5 -75.5t2 -76t1.5 -77.5q-42 17 -69 39t-29 63q-6 93 -6 186q0 72 0.5 143t1.5 143q1 16 2 31zM241 173
q-27 -9 -44 -19.5t-26 -24.5t-11 -33t1 -46q21 7 34.5 19.5t22 28.5t13.5 35t10 40z" />
    <glyph glyph-name="q" unicode="q" horiz-adv-x="348" 
d="M299 -403q-21 -1 -32 8t-20 21t-18.5 22t-26.5 10v347q-13 -2 -21 -3.5t-15 -3.5q-32 -12 -60.5 -2t-48.5 32t-30 51t-5 55q12 55 41 98.5t88 63.5q31 10 59.5 5.5t50.5 -21t34.5 -43t11.5 -58.5q-4 -89 -5 -177t-3 -177q-1 -56 -0.5 -112t0.5 -116zM190 196l-28.5 -28.5
t-25.5 -31.5t-16 -38t-1 -48q38 33 57 67t14 79z" />
    <glyph glyph-name="r" unicode="r" horiz-adv-x="312" 
d="M125 -70q-12 5 -24 7.5t-19 10.5q-14 16 -28 33.5t-16 36.5q-8 53 -11 105t-6 105q-1 9 0 18.5t5 17.5q9 21 30 23t35 -17q8 -11 14 -24t14 -27q15 9 30.5 18.5t31 16t32.5 7.5t36 -9q12 -6 20.5 -22.5t22.5 -36.5h-88q-24 -20 -38.5 -36.5t-22 -42.5t-11.5 -68.5
t-7 -115.5z" />
    <glyph glyph-name="s" unicode="s" horiz-adv-x="274" 
d="M10 16q25 -12 41 -17.5t30 -2t29 17t37 39.5q-16 24 -32 49t-34 50q-44 64 -32 142q8 47 33.5 63t72.5 5q12 -3 24.5 -4.5t24.5 -5.5q9 -3 17.5 -6.5t15.5 -9.5t11.5 -15.5t5.5 -24.5q-12 0 -23 -0.5t-22 0.5q-23 1 -41.5 -6.5t-30 -22t-15 -34t4.5 -41.5q8 -20 20 -38
t23 -37q14 -21 28.5 -41t25.5 -42q10 -20 14 -34t0.5 -25t-14.5 -20.5t-30 -21.5q-12 -7 -25 -12.5t-27 -7.5q-35 -7 -60 5t-44 43q-8 14 -14.5 27.5t-13.5 27.5z" />
    <glyph glyph-name="t" unicode="t" horiz-adv-x="274" 
d="M20 245h59q10 29 15 58.5t10 59.5t11.5 60.5t19.5 60.5q15 -11 25 -19.5t21 -14.5q26 -14 31 -34.5t0 -44.5q-6 -31 -12 -61.5t-13 -64.5h63q3 -20 3.5 -31.5t-2.5 -18.5t-12 -11t-25 -9q-25 -8 -36 -22.5t-11 -40.5q0 -45 -0.5 -89.5t0.5 -89.5q0 -12 3.5 -23.5
t20.5 -13.5q3 -1 6.5 -2.5t3.5 -3.5q4 -16 10 -34t0 -28q-12 -17 -29 -10.5t-31 16.5q-60 43 -69 114q-5 41 -7.5 80.5t-1.5 80.5q1 29 -3 54t-30 45q-5 4 -8.5 13t-11.5 24z" />
    <glyph glyph-name="u" unicode="u" horiz-adv-x="342" 
d="M69 295q21 -11 37.5 -20.5t31.5 -17.5q7 -31 3 -61.5t-9 -61t-7 -61.5t9 -63q12 8 19 18t12 21t8 22.5t7 22.5q8 23 15.5 46t15.5 46q25 -4 40.5 -8.5t24 -13t11.5 -21t4 -32.5q2 -48 5 -95.5t6 -96.5q-16 -4 -27 1t-20 14t-18.5 20t-23.5 19q-5 -8 -10.5 -18.5
t-14.5 -18.5q-21 -17 -41 -14.5t-41 17.5q-49 32 -64 77.5t-11 99.5q2 31 5 62t8 62q2 14 9.5 27t15.5 28z" />
    <glyph glyph-name="v" unicode="v" horiz-adv-x="328" 
d="M160 83q12 30 25 59.5t23 61.5q10 30 16 61.5t14 62.5q41 -2 53 -16.5t1 -56.5q-20 -71 -43.5 -140t-46.5 -138q-8 -22 -18.5 -43.5t-22.5 -49.5q-17 11 -33 20.5t-29.5 20.5t-23.5 25.5t-14 34.5q-11 52 -20 104l-18 104q-5 33 1 45.5t28 16.5q24 5 44 -7.5t27 -38.5
q8 -32 14 -64t13 -64q3 1 5.5 1t4.5 1z" />
    <glyph glyph-name="w" unicode="w" horiz-adv-x="453" 
d="M144 8q23 23 35.5 48t7.5 57q-2 17 2 30t24 18t33 -4.5t20 -27.5q8 -20 14.5 -41t15.5 -47q18 18 27.5 37t14 38.5t5.5 39t1 39.5q0 38 -4.5 76.5t-8.5 79.5q31 14 45 9.5t19 -38.5q8 -52 10.5 -104.5t6.5 -105.5q1 -9 -2.5 -18t-5.5 -18q-8 -28 -25.5 -46t-40.5 -33
q-14 -9 -25.5 -9t-23 5.5t-22.5 12.5t-24 12q-8 -14 -14.5 -26.5t-12.5 -23.5q-21 -38 -42.5 -42.5t-57.5 17.5q-42 25 -59.5 63t-21.5 82q-5 46 -4.5 92.5t-0.5 93.5q0 8 1 13q5 31 25 51.5t41 15.5q22 -6 33.5 -31.5t5.5 -55.5q-27 -128 8 -259z" />
    <glyph glyph-name="x" unicode="x" horiz-adv-x="336" 
d="M302 357q13 -25 13 -48t-17 -42q-39 -42 -51 -83t-6 -82t24.5 -81.5t40.5 -80.5q1 -2 1 -3t1 -3q-26 -14 -41 -11t-35 26q-20 24 -39 49.5t-41 54.5q-12 -14 -22 -27.5t-21 -26.5q-7 -8 -15 -15t-17 -12q-14 -10 -27.5 -6.5t-21.5 15.5q-5 9 -7 22.5t3 22.5
q11 20 25.5 38.5t28.5 36.5q11 15 19.5 30t13 31t3 33t-9.5 37q-13 32 -18.5 65.5t-12.5 67.5q-2 10 -1 21t1 26q30 -3 50.5 -14.5t34.5 -29t24.5 -39t21.5 -42.5q13 6 22.5 18t19.5 24t23 20.5t33 7.5z" />
    <glyph glyph-name="y" unicode="y" horiz-adv-x="356" 
d="M22 265q24 6 40.5 6.5t28.5 -5.5t20 -19t15 -34q4 -13 6.5 -26.5t7 -27.5t12.5 -27t23 -24q12 46 22.5 88t21.5 83q64 1 84 -21t9 -79q-18 -91 -41 -178.5t-56 -173.5q-15 -38 -35 -75t-42 -73q-6 -9 -12.5 -18.5t-15.5 -16.5t-20 -9.5t-26 0.5q-6 2 -13.5 -3t-13.5 -10
q-24 -15 -42 -7t-35 33q23 4 38.5 15t26.5 25.5t18.5 31.5t14.5 34q26 58 48.5 117t45.5 118q9 23 4 39t-28 27q-28 14 -44.5 38t-25.5 53q-10 29 -18.5 59t-17.5 60z" />
    <glyph glyph-name="z" unicode="z" horiz-adv-x="335" 
d="M171 188q-18 0 -36.5 0.5t-36.5 -1.5q-20 -2 -31 7t-14 26q-5 38 3 76q1 5 15 7.5t24 1.5q25 -3 49.5 -8t48.5 -9q42 -6 63 -33t33 -62q10 -29 0 -52t-31 -42q-21 -20 -43.5 -41t-51.5 -48q27 -1 46.5 -1.5t36.5 -2.5q21 -2 33.5 -5.5t19.5 -11.5t10.5 -23.5t5.5 -41.5
q-30 -2 -60.5 -7t-60.5 -9t-61 -5.5t-62 1.5q-23 2 -34.5 14.5t-13.5 32.5q-4 38 2 72t44 59q30 20 55.5 45t52.5 48q-2 3 -3 6.5t-3 6.5z" />
    </font>
</defs>
</svg>
